<svg id="Layer_1" xmlns="http://www.w3.org/2000/svg" xmlns:xlink="http://www.w3.org/1999/xlink" viewBox="0 0 79.9 76"><style>.st0{fill:#fed204}.st0,.st1{clip-path:url(#SVGID_2_)}</style><path d="M50.3 73.7c-1.4-1-1.5-2.6-1.5-2.6l-.5-3.3H31.7l-.5 3.3s-.1 1.5-1.5 2.6c-1.4 1-2.5 1.9-1.4 2 1.1.1 11 0 11.7 0 .7 0 10.7.1 11.7 0 1.1-.1 0-1-1.4-2zm0 0"/><defs><path id="SVGID_1_" d="M0 0h79.9v76H0z"/></defs><clipPath id="SVGID_2_"><use xlink:href="#SVGID_1_" overflow="visible"/></clipPath><path class="st0" d="M21.3 47.1c4.4 0 5-1.1 6.4-5.5 2.7-7 14.6 1.8 7.2 4.9-7.4 3.1-18 .7-13.6.6zm0 0"/><path class="st0" d="M66.7.9C64.6-.8 61 0 58.8 2.8L36.1 35.1c-2.2 2.8-2.2 2.3-.1 4 2.1 1.7 1.6 1.9 3.9-.9L66.6 9.1c2.2-2.8 2.3-6.5.1-8.2zm-5.8 3.9s-.3-.4-1.4-1.3c1.7-2.7 4.9-2.2 4.9-2.2-3.1 1.8-3.5 3.5-3.5 3.5zm0 0"/><path class="st1" d="M76.8 11.8h-10l-4.4 4.8h12.8V55H4.8V16.6h41l3.4-4.8h-46C1.4 11.8 0 13.2 0 15v46.4c0 1.8 1.4 3.2 3.2 3.2h73.6c1.8 0 3.2-1.4 3.2-3.2V15c0-1.8-1.4-3.2-3.2-3.2zm0 0"/></svg>