<svg id="Layer_1" xmlns="http://www.w3.org/2000/svg" viewBox="0 0 79.1 65.8"><style>.st0{fill:#fed308}</style><path class="st0" d="M49.5 51.4h-3.2V30.3c0-1.6-1.3-2.9-2.9-2.9h-7.9c-1.6 0-2.9 1.3-2.9 2.9v21.1h-3.2c-.7 0-1.4.4-1.7 1.1-.3.7-.2 1.4.3 2l8.5 10c.7.9 1.8 1.3 2.9 1.3 1.1 0 2.2-.5 2.9-1.3l8.5-10c.5-.6.6-1.3.3-2-.2-.7-.9-1.1-1.6-1.1zm0 0"/><path d="M63.2 12.1c-.6 0-1.1-.3-1.4-.8-3.2-4.3-8.4-7-13.9-7h-1.1c-.5 0-.9-.1-1.3-.4C42.2 1.4 38.2 0 33.9 0c-7.6 0-14.4 4.4-17.5 11.1-.3.6-.8 1-1.5 1.1C6.5 13.4 0 20.6 0 29.3c0 9.5 7.7 17.3 17.3 17.3h12.3v-6.8H17.3c-5.8 0-10.5-4.7-10.5-10.5s4.7-10.5 10.5-10.5h.9c1.7.1 3.2-1 3.6-2.6 1.4-5.6 6.4-9.5 12.2-9.5 3.3 0 6.4 1.3 8.8 3.6.8.8 2 1.1 3.1.9.7-.1 1.4-.2 2.1-.2 4 0 7.7 2.3 9.4 5.9.6 1.3 2 2.1 3.4 1.9.4 0 .7-.1 1.1-.1 5.8 0 10.5 4.7 10.5 10.5s-4.7 10.5-10.5 10.5H49.5v6.8h12.3c9.5 0 17.3-7.8 17.3-17.3 0-8.9-7-16.4-15.9-17.1zm0 0"/></svg>