<svg id="Layer_1" xmlns="http://www.w3.org/2000/svg" xmlns:xlink="http://www.w3.org/1999/xlink" viewBox="0 0 114.9 100.4"><style>.st0,.st1{fill:#fed308}.st1,.st2{clip-path:url(#SVGID_2_)}</style><path class="st0" d="M85.9 28c-3.4-1.4-4.4-2.2-4.4-3.7 0-1.2.9-2.6 3.5-2.6 2.3 0 4 .9 4 .9.2.1.4.2.6.2.5 0 .9-.3 1.1-.8l.6-1.6c.2-.6-.1-1.1-.5-1.3-1.4-.6-4.1-1.1-4.2-1.1 0 0-.2 0-.2-.2v-2.3c0-.7-.6-1.3-1.3-1.3H84c-.7 0-1.3.6-1.3 1.3v2.4c0 .2-.2.3-.3.3-3.4.8-5.6 3.3-5.6 6.5 0 4 3.3 5.8 6.8 7.1 2.8 1.1 4 2.2 4 3.9 0 1.8-1.6 3.1-4 3.1-2 0-4.7-1.3-4.7-1.3-.2-.1-.4-.1-.5-.1-.5 0-1 .3-1.1.8l-.6 1.6c-.2.6.1 1.1.5 1.3 1.7.9 4.9 1.4 5 1.4 0 0 .2.1.2.3v2.4c0 .7.6 1.3 1.3 1.3h1.2c.7 0 1.3-.6 1.3-1.3v-2.5c0-.2.2-.3.2-.3 3.7-.8 5.9-3.5 5.9-6.9.1-3.4-1.9-5.7-6.4-7.5zm0 0"/><defs><path id="SVGID_1_" d="M0 0h114.9v100.4H0z"/></defs><clipPath id="SVGID_2_"><use xlink:href="#SVGID_1_" overflow="visible"/></clipPath><path class="st1" d="M84.5 0C67.7 0 54.1 13.6 54.1 30.4c0 16.8 13.6 30.4 30.4 30.4 16.8 0 30.4-13.6 30.4-30.4C114.9 13.6 101.3 0 84.5 0zm0 53.7c-12.9 0-23.3-10.4-23.3-23.3S71.6 7 84.5 7s23.3 10.4 23.3 23.3c0 13-10.4 23.4-23.3 23.4zm0 0"/><path class="st2" d="M108.7 75.5c-6.5 3.6-15.3 6.9-24.2 8.2-7.9 1.2-22.7-1.7-22.7-5.3 0-1.3 13 3.3 20.9 1.2 6-1.6 5.2-7.3 1.9-8-3.3-.7-22.4-7.7-30.5-8-3.8-.1-13.3 1.3-17.9 2.1-1.6.3-2.6.2-2.7 1.7-.5 7-1.4 21.3-1.8 28.8 0 .2.2 2.3 2 .8 1.9-1.6 4.6-3.5 7.1-2.9 3.9.9 37.7 7.1 42.3 6 6.7-1.5 25.5-12.7 29.2-16.2 5.4-5.3 1.1-11-3.6-8.4zm-84.6-10l-17.7-.9c-1.4-.1-2.8 1-3.1 2.3L.1 96.1c-.3 1.3.5 2.5 1.9 2.5h19.6c1.4.1 2.6-1 2.7-2.4L26.5 68c0-1.3-1-2.5-2.4-2.5zM13.7 94.7c-2.7 0-4.9-2.2-4.9-4.9s2.2-4.9 4.9-4.9 4.9 2.2 4.9 4.9-2.2 4.9-4.9 4.9zm0 0"/></svg>