<svg id="Layer_1" xmlns="http://www.w3.org/2000/svg" xmlns:xlink="http://www.w3.org/1999/xlink" viewBox="0 0 84 92.7"><style>.st0{clip-path:url(#SVGID_2_)}.st1{fill:#fed308}</style><defs><path id="SVGID_1_" d="M0 0h84v92.7H0z"/></defs><clipPath id="SVGID_2_"><use xlink:href="#SVGID_1_" overflow="visible"/></clipPath><g class="st0"><path d="M33.5 71.5c-5.7 1.9-8.8 8-6.9 13.7 1.9 5.7 8 8.8 13.7 6.9 5.7-1.9 8.8-8 6.9-13.7-1.9-5.7-8-8.8-13.7-6.9zM38.6 87c-2.8.9-5.9-.6-6.9-3.5-.9-2.9.6-5.9 3.5-6.9 2.8-.9 5.9.6 6.9 3.5.9 2.9-.6 5.9-3.5 6.9z"/><path class="st1" d="M44.4 65.5c.2.7 1 1.1 1.7.9l35.5-11.7c.7-.2 1.1-1 .9-1.7L71.2 18.7c-.2-.7-1-1.1-1.7-.9L34 29.6c-.7.2-1.1 1-.9 1.7l11.3 34.2zm10.1-33.6l12.1 6.6-2 3.7-5.2-2.9L63.8 53l-4.3 1.4L55 40.8l-2.5 5.4-3.8-1.8 5.8-12.5z"/><path d="M83.8 63.6c-.5-1.5-2-2.2-3.5-1.8l-33.2 11c1.2 1.3 2.1 2.9 2.7 4.7 0 .1 0 .1.1.2l32.2-10.6c1.4-.5 2.2-2 1.7-3.5zm-43.4 5L20.1 7.2c-1.8-5.4-7.6-8.3-13-6.6-5.4 1.8-8.3 7.6-6.6 13 .5 1.5 2 2.2 3.5 1.8 1.5-.5 2.2-2 1.8-3.5-.8-2.5.5-5.2 3-6 2.5-.8 5.2.5 6 3l19.6 59.4c2.1-.3 4.1-.2 6 .3z"/></g></svg>