<?xml version="1.0" encoding="utf-8"?>
<!-- Generator: Adobe Illustrator 20.1.0, SVG Export Plug-In . SVG Version: 6.00 Build 0)  -->
<svg version="1.1" id="Layer_1" xmlns="http://www.w3.org/2000/svg" xmlns:xlink="http://www.w3.org/1999/xlink" x="0px" y="0px"
	 viewBox="0 0 79.1 65.8" style="enable-background:new 0 0 79.1 65.8;" xml:space="preserve">
<style type="text/css">
	.st0{fill:#FED308;}
</style>
<g>
	<path class="st0" d="M49.5,51.4h-3.2V30.3c0-1.6-1.3-2.9-2.9-2.9h-7.9c-1.6,0-2.9,1.3-2.9,2.9v21.1h-3.2c-0.7,0-1.4,0.4-1.7,1.1
		c-0.3,0.7-0.2,1.4,0.3,2l8.5,10c0.7,0.9,1.8,1.3,2.9,1.3c1.1,0,2.2-0.5,2.9-1.3l8.5-10c0.5-0.6,0.6-1.3,0.3-2
		C50.9,51.8,50.2,51.4,49.5,51.4L49.5,51.4z M49.5,51.4"/>
	<path d="M63.2,12.1c-0.6,0-1.1-0.3-1.4-0.8C58.6,7,53.4,4.3,47.9,4.3c-0.3,0-0.7,0-1.1,0c-0.5,0-0.9-0.1-1.3-0.4
		C42.2,1.4,38.2,0,33.9,0c-7.6,0-14.4,4.4-17.5,11.1c-0.3,0.6-0.8,1-1.5,1.1C6.5,13.4,0,20.6,0,29.3c0,9.5,7.7,17.3,17.3,17.3h12.3
		v-6.8H17.3c-5.8,0-10.5-4.7-10.5-10.5c0-5.8,4.7-10.5,10.5-10.5c0.3,0,0.6,0,0.9,0c1.7,0.1,3.2-1,3.6-2.6c1.4-5.6,6.4-9.5,12.2-9.5
		c3.3,0,6.4,1.3,8.8,3.6c0.8,0.8,2,1.1,3.1,0.9c0.7-0.1,1.4-0.2,2.1-0.2c4,0,7.7,2.3,9.4,5.9c0.6,1.3,2,2.1,3.4,1.9
		c0.4,0,0.7-0.1,1.1-0.1c5.8,0,10.5,4.7,10.5,10.5c0,5.8-4.7,10.5-10.5,10.5H49.5v6.8h12.3c9.5,0,17.3-7.8,17.3-17.3
		C79.1,20.3,72.1,12.8,63.2,12.1L63.2,12.1z M63.2,12.1"/>
</g>
</svg>
