<?xml version="1.0" encoding="utf-8"?>
<!-- Generator: Adobe Illustrator 20.1.0, SVG Export Plug-In . SVG Version: 6.00 Build 0)  -->
<svg version="1.1" id="Layer_1" xmlns="http://www.w3.org/2000/svg" xmlns:xlink="http://www.w3.org/1999/xlink" x="0px" y="0px"
	 viewBox="0 0 84 92.7" style="enable-background:new 0 0 84 92.7;" xml:space="preserve">
<style type="text/css">
	.st0{clip-path:url(#SVGID_2_);}
	.st1{fill:#FED308;}
</style>
<g>
	<defs>
		<rect id="SVGID_1_" width="84" height="92.7"/>
	</defs>
	<clipPath id="SVGID_2_">
		<use xlink:href="#SVGID_1_"  style="overflow:visible;"/>
	</clipPath>
	<g class="st0">
		<path d="M33.5,71.5c-5.7,1.9-8.8,8-6.9,13.7c1.9,5.7,8,8.8,13.7,6.9c5.7-1.9,8.8-8,6.9-13.7C45.3,72.7,39.2,69.6,33.5,71.5z
			 M38.6,87c-2.8,0.9-5.9-0.6-6.9-3.5c-0.9-2.9,0.6-5.9,3.5-6.9c2.8-0.9,5.9,0.6,6.9,3.5C43,83,41.5,86,38.6,87z"/>
		<path class="st1" d="M44.4,65.5c0.2,0.7,1,1.1,1.7,0.9l35.5-11.7c0.7-0.2,1.1-1,0.9-1.7L71.2,18.7c-0.2-0.7-1-1.1-1.7-0.9L34,29.6
			c-0.7,0.2-1.1,1-0.9,1.7L44.4,65.5z M54.5,31.9l12.1,6.6l-2,3.7l-5.2-2.9L63.8,53l-4.3,1.4L55,40.8l-2.5,5.4l-3.8-1.8L54.5,31.9z"
			/>
		<path d="M83.8,63.6c-0.5-1.5-2-2.2-3.5-1.8l-33.2,11c1.2,1.3,2.1,2.9,2.7,4.7c0,0.1,0,0.1,0.1,0.2l32.2-10.6
			C83.5,66.6,84.3,65.1,83.8,63.6z"/>
		<path d="M40.4,68.6L20.1,7.2c-1.8-5.4-7.6-8.3-13-6.6c-5.4,1.8-8.3,7.6-6.6,13c0.5,1.5,2,2.2,3.5,1.8c1.5-0.5,2.2-2,1.8-3.5
			c-0.8-2.5,0.5-5.2,3-6c2.5-0.8,5.2,0.5,6,3l19.6,59.4C36.5,68,38.5,68.1,40.4,68.6z"/>
	</g>
</g>
</svg>
