<?xml version="1.0" encoding="utf-8"?>
<!-- Generator: Adobe Illustrator 20.1.0, SVG Export Plug-In . SVG Version: 6.00 Build 0)  -->
<svg version="1.1" id="Layer_1" xmlns="http://www.w3.org/2000/svg" xmlns:xlink="http://www.w3.org/1999/xlink" x="0px" y="0px"
	 viewBox="0 0 79.9 76" style="enable-background:new 0 0 79.9 76;" xml:space="preserve">
<style type="text/css">
	.st0{clip-path:url(#SVGID_2_);fill:#FED204;}
	.st1{clip-path:url(#SVGID_2_);}
</style>
<g>
	<path d="M50.3,73.7c-1.4-1-1.5-2.6-1.5-2.6l-0.5-3.3H31.7l-0.5,3.3c0,0-0.1,1.5-1.5,2.6c-1.4,1-2.5,1.9-1.4,2c1.1,0.1,11,0,11.7,0
		c0.7,0,10.7,0.1,11.7,0C52.8,75.6,51.7,74.7,50.3,73.7L50.3,73.7z M50.3,73.7"/>
	<g>
		<defs>
			<rect id="SVGID_1_" width="79.9" height="76"/>
		</defs>
		<clipPath id="SVGID_2_">
			<use xlink:href="#SVGID_1_"  style="overflow:visible;"/>
		</clipPath>
		<path class="st0" d="M21.3,47.1c4.4,0,5-1.1,6.4-5.5c2.7-7,14.6,1.8,7.2,4.9C27.5,49.6,16.9,47.2,21.3,47.1L21.3,47.1z M21.3,47.1
			"/>
		<path class="st0" d="M66.7,0.9C64.6-0.8,61,0,58.8,2.8L36.1,35.1c-2.2,2.8-2.2,2.3-0.1,4c2.1,1.7,1.6,1.9,3.9-0.9L66.6,9.1
			C68.8,6.3,68.9,2.6,66.7,0.9L66.7,0.9z M60.9,4.8c0,0-0.3-0.4-1.4-1.3c1.7-2.7,4.9-2.2,4.9-2.2C61.3,3.1,60.9,4.8,60.9,4.8
			L60.9,4.8z M60.9,4.8"/>
		<path class="st1" d="M76.8,11.8h-10l-4.4,4.8h12.8V55H4.8V16.6h41l3.4-4.8H3.2C1.4,11.8,0,13.2,0,15v46.4c0,1.8,1.4,3.2,3.2,3.2
			h73.6c1.8,0,3.2-1.4,3.2-3.2V15C80,13.2,78.6,11.8,76.8,11.8L76.8,11.8z M76.8,11.8"/>
	</g>
</g>
</svg>
