<?xml version="1.0" encoding="utf-8"?>
<!-- Generator: Adobe Illustrator 20.1.0, SVG Export Plug-In . SVG Version: 6.00 Build 0)  -->
<svg version="1.1" id="Layer_1" xmlns="http://www.w3.org/2000/svg" xmlns:xlink="http://www.w3.org/1999/xlink" x="0px" y="0px"
	 viewBox="0 0 114.9 100.4" style="enable-background:new 0 0 114.9 100.4;" xml:space="preserve">
<style type="text/css">
	.st0{fill:#FED308;}
	.st1{clip-path:url(#SVGID_2_);fill:#FED308;}
	.st2{clip-path:url(#SVGID_2_);}
</style>
<g>
	<path class="st0" d="M85.9,28c-3.4-1.4-4.4-2.2-4.4-3.7c0-1.2,0.9-2.6,3.5-2.6c2.3,0,4,0.9,4,0.9c0.2,0.1,0.4,0.2,0.6,0.2
		c0.5,0,0.9-0.3,1.1-0.8l0.6-1.6c0.2-0.6-0.1-1.1-0.5-1.3c-1.4-0.6-4.1-1.1-4.2-1.1c0,0-0.2,0-0.2-0.2l0-2.3c0-0.7-0.6-1.3-1.3-1.3
		H84c-0.7,0-1.3,0.6-1.3,1.3l0,2.4c0,0.2-0.2,0.3-0.3,0.3c-3.4,0.8-5.6,3.3-5.6,6.5c0,4,3.3,5.8,6.8,7.1c2.8,1.1,4,2.2,4,3.9
		c0,1.8-1.6,3.1-4,3.1c-2,0-4.7-1.3-4.7-1.3c-0.2-0.1-0.4-0.1-0.5-0.1c-0.5,0-1,0.3-1.1,0.8l-0.6,1.6c-0.2,0.6,0.1,1.1,0.5,1.3
		c1.7,0.9,4.9,1.4,5,1.4c0,0,0.2,0.1,0.2,0.3v2.4c0,0.7,0.6,1.3,1.3,1.3h1.2c0.7,0,1.3-0.6,1.3-1.3v-2.5c0-0.2,0.2-0.3,0.2-0.3
		c3.7-0.8,5.9-3.5,5.9-6.9C92.4,32.1,90.4,29.8,85.9,28L85.9,28z M85.9,28"/>
	<g>
		<defs>
			<rect id="SVGID_1_" width="114.9" height="100.4"/>
		</defs>
		<clipPath id="SVGID_2_">
			<use xlink:href="#SVGID_1_"  style="overflow:visible;"/>
		</clipPath>
		<path class="st1" d="M84.5,0C67.7,0,54.1,13.6,54.1,30.4c0,16.8,13.6,30.4,30.4,30.4c16.8,0,30.4-13.6,30.4-30.4
			C114.9,13.6,101.3,0,84.5,0L84.5,0z M84.5,53.7c-12.9,0-23.3-10.4-23.3-23.3C61.2,17.5,71.6,7,84.5,7c12.9,0,23.3,10.4,23.3,23.3
			C107.8,43.3,97.4,53.7,84.5,53.7L84.5,53.7z M84.5,53.7"/>
		<path class="st2" d="M108.7,75.5c-6.5,3.6-15.3,6.9-24.2,8.2c-7.9,1.2-22.7-1.7-22.7-5.3c0-1.3,13,3.3,20.9,1.2
			c6-1.6,5.2-7.3,1.9-8c-3.3-0.7-22.4-7.7-30.5-8c-3.8-0.1-13.3,1.3-17.9,2.1c-1.6,0.3-2.6,0.2-2.7,1.7c-0.5,7-1.4,21.3-1.8,28.8
			c0,0.2,0.2,2.3,2,0.8c1.9-1.6,4.6-3.5,7.1-2.9c3.9,0.9,37.7,7.1,42.3,6c6.7-1.5,25.5-12.7,29.2-16.2
			C117.7,78.6,113.4,72.9,108.7,75.5L108.7,75.5z M108.7,75.5"/>
		<path class="st2" d="M24.1,65.5L6.4,64.6c-1.4-0.1-2.8,1-3.1,2.3L0.1,96.1c-0.3,1.3,0.5,2.5,1.9,2.5l19.6,0c1.4,0.1,2.6-1,2.7-2.4
			l2.2-28.2C26.5,66.7,25.5,65.5,24.1,65.5L24.1,65.5z M13.7,94.7c-2.7,0-4.9-2.2-4.9-4.9c0-2.7,2.2-4.9,4.9-4.9
			c2.7,0,4.9,2.2,4.9,4.9C18.6,92.5,16.4,94.7,13.7,94.7L13.7,94.7z M13.7,94.7"/>
	</g>
</g>
</svg>
