<?xml version="1.0" encoding="utf-8"?>
<!-- Generator: Adobe Illustrator 20.1.0, SVG Export Plug-In . SVG Version: 6.00 Build 0)  -->
<svg version="1.1" id="Слой_1" xmlns="http://www.w3.org/2000/svg" xmlns:xlink="http://www.w3.org/1999/xlink" x="0px" y="0px"
	 viewBox="0 0 119.1 106.7" style="enable-background:new 0 0 119.1 106.7;" xml:space="preserve">
<g>
	<path d="M116.7,0.3H32c-1.6,0-2.9,1.3-2.9,2.9c0,1.6,1.3,2.9,2.9,2.9h81.8v94.5H32c-1.6,0-2.9,1.3-2.9,2.9c0,1.6,1.3,2.9,2.9,2.9
		h84.7c1.6,0,2.9-1.3,2.9-2.9V3.2C119.6,1.6,118.3,0.3,116.7,0.3L116.7,0.3z M116.7,0.3"/>
	<path d="M43.8,70.7c-1.1,1.1-1.1,2.9,0,4.1c0.6,0.6,1.3,0.8,2.1,0.8c0.7,0,1.5-0.3,2.1-0.8l17.9-17.7c1.1-1.1,1.1-2.9,0-4.1
		L47.9,35.4c-1.1-1.1-3-1.1-4.1,0c-1.1,1.1-1.1,2.9,0,4l12.9,12.8H2.5c-1.6,0-2.9,1.3-2.9,2.9c0,1.6,1.3,2.9,2.9,2.9h54.3L43.8,70.7
		z M43.8,70.7"/>
</g>
</svg>
